<svg width="120" height="120" viewBox="0 0 120 120" fill="none" xmlns="http://www.w3.org/2000/svg">
  <!-- Background Circle -->
  <circle cx="60" cy="60" r="58" fill="#0EA5E9" stroke="#0284C7" stroke-width="4"/>
  
  <!-- Earth/Globe -->
  <circle cx="60" cy="60" r="42" fill="#10B981"/>
  
  <!-- Continents (simplified) -->
  <path d="M35 45 C40 42, 48 44, 52 48 C55 50, 58 48, 62 50 C65 52, 68 55, 70 58 C72 62, 75 65, 78 62 C80 60, 82 58, 85 60 C87 62, 85 65, 82 68 C78 72, 75 75, 72 78 C68 82, 65 85, 60 85 C55 85, 50 82, 45 78 C40 75, 35 70, 32 65 C30 60, 32 55, 35 50 C37 47, 36 46, 35 45 Z" fill="#059669"/>
  
  <!-- Cloud (representing climate) -->
  <ellipse cx="45" cy="25" rx="12" ry="6" fill="white" opacity="0.9"/>
  <ellipse cx="52" cy="23" rx="8" ry="5" fill="white" opacity="0.9"/>
  <ellipse cx="38" cy="23" rx="6" ry="4" fill="white" opacity="0.9"/>
  
  <!-- Temperature indicator -->
  <rect x="85" y="30" width="3" height="25" rx="1.5" fill="#EF4444"/>
  <circle cx="86.5" cy="58" r="4" fill="#EF4444"/>
  
  <!-- Precipitation drops -->
  <ellipse cx="75" cy="35" rx="2" ry="4" fill="#3B82F6" opacity="0.8"/>
  <ellipse cx="80" cy="32" rx="1.5" ry="3" fill="#3B82F6" opacity="0.8"/>
  <ellipse cx="78" cy="40" rx="1" ry="2" fill="#3B82F6" opacity="0.8"/>
  
  <!-- Title Text -->
  <text x="60" y="105" text-anchor="middle" fill="white" font-family="Arial, sans-serif" font-size="12" font-weight="bold">ClimaPulse</text>
</svg>